<svg rpl="" aria-label="Archived post" class="hidden archived-status fill-[color:var(--color-identity-coins)] shrink-0" fill="currentColor" height="12" icon-name="archived-fill" viewBox="0 0 20 20" width="12" xmlns="http://www.w3.org/2000/svg">
      <path d="M19 2.125v3.75A1.127 1.127 0 0 1 17.875 7H2.125A1.127 1.127 0 0 1 1 5.875v-3.75A1.127 1.127 0 0 1 2.125 1h15.75A1.127 1.127 0 0 1 19 2.125Zm-1 6.287v9.453a1.19 1.19 0 0 1-1.192 1.185H3.192A1.19 1.19 0 0 1 2 17.865V8.412c.042 0 .082.013.125.013h15.75c.043 0 .083-.011.125-.013ZM13.35 11h-6.7v1.5h6.7V11Z"></path>
    </svg>