<svg xmlns="http://www.w3.org/2000/svg" width="120" height="40" fill="none" xmlns:v="https://vecta.io/nano"><g clip-path="url(#A)"><path d="M110.135 0H9.535L8.44.002l-.919.013C6.85.023 6.18.082 5.517.191S4.215.515 3.616.818a6.44 6.44 0 0 0-1.619 1.179A6.26 6.26 0 0 0 .819 3.618a6.6 6.6 0 0 0-.625 1.903C.083 6.183.023 6.853.015 7.523L0 8.444v23.114l.015.922c.008.671.068 1.34.179 2.002a6.59 6.59 0 0 0 .625 1.904c.303.598.701 1.143 1.178 1.614.473.477 1.019.875 1.619 1.179s1.239.517 1.901.631a13.47 13.47 0 0 0 2.004.177l.919.011L9.535 40h100.6l1.084-.002.922-.011c.67-.008 1.338-.067 2-.177a6.81 6.81 0 0 0 1.908-.631c.598-.304 1.144-.702 1.617-1.179s.875-1.018 1.182-1.614a6.62 6.62 0 0 0 .619-1.904 13.57 13.57 0 0 0 .185-2.002l.004-.922.008-1.094V9.536l-.008-1.092-.004-.921a13.57 13.57 0 0 0-.185-2.002 6.65 6.65 0 0 0-.619-1.903 6.47 6.47 0 0 0-2.799-2.8 6.77 6.77 0 0 0-1.908-.627c-.661-.11-1.33-.169-2-.177l-.922-.013L110.135 0h0z" fill="#a6a6a6"/><path d="M8.445 39.125a39.93 39.93 0 0 1-.904-.011c-.626-.008-1.251-.063-1.869-.163-.576-.099-1.135-.284-1.657-.548s-.989-.605-1.397-1.017a5.32 5.32 0 0 1-1.021-1.396 5.72 5.72 0 0 1-.543-1.657c-.103-.62-.159-1.247-.167-1.875l-.015-.913V8.444l.015-.895a12.37 12.37 0 0 1 .166-1.872c.095-.578.279-1.139.543-1.662.261-.518.604-.99 1.015-1.398s.884-.757 1.402-1.022 1.078-.446 1.653-.544C6.288.95 6.915.895 7.543.887l.902-.012h102.769l.913.013a12.37 12.37 0 0 1 1.858.163c.581.099 1.145.283 1.671.548a5.59 5.59 0 0 1 2.415 2.42 5.74 5.74 0 0 1 .535 1.649c.104.624.162 1.255.174 1.887l.003.89.008 1.092v20.929l-.008 1.075-.004.93c-.011.621-.069 1.241-.171 1.853-.093.581-.275 1.144-.54 1.67a5.47 5.47 0 0 1-1.015 1.386c-.409.414-.881.759-1.4 1.023-.525.266-1.087.451-1.668.55-.618.101-1.243.155-1.869.163l-.897.011-1.084.002-101.69-.002z" fill="#000"/><g fill="#fff"><path d="M24.769 20.301a4.94 4.94 0 0 1 .645-2.379 4.95 4.95 0 0 1 1.712-1.773c-.452-.645-1.048-1.176-1.741-1.551s-1.463-.582-2.251-.607c-1.679-.176-3.307 1.005-4.163 1.005-.872 0-2.19-.987-3.608-.958a5.32 5.32 0 0 0-2.596.775 5.31 5.31 0 0 0-1.877 1.953c-1.934 3.348-.492 8.27 1.361 10.976.927 1.325 2.01 2.806 3.428 2.753 1.387-.058 1.905-.885 3.579-.885 1.659 0 2.145.885 3.591.851 1.488-.024 2.426-1.331 3.32-2.669a10.95 10.95 0 0 0 1.518-3.093 4.78 4.78 0 0 1-2.919-4.399h0zm-2.732-8.09c.812-.974 1.211-2.226 1.115-3.491a4.96 4.96 0 0 0-3.208 1.66 4.64 4.64 0 0 0-.906 1.567c-.196.577-.277 1.187-.237 1.795a4.1 4.1 0 0 0 3.237-1.53zM42.302 27.14h-4.733l-1.137 3.356h-2.005l4.483-12.418h2.083l4.483 12.418h-2.039l-1.136-3.356zm-4.243-1.549h3.752l-1.85-5.447h-.052l-1.851 5.447zm17.101.379c0 2.814-1.506 4.621-3.778 4.621a3.07 3.07 0 0 1-2.849-1.584h-.043v4.484h-1.858V21.442h1.799v1.506h.034a3.21 3.21 0 0 1 2.883-1.601c2.298 0 3.813 1.816 3.813 4.622zm-1.91 0c0-1.833-.947-3.038-2.392-3.038-1.42 0-2.375 1.23-2.375 3.038 0 1.824.955 3.046 2.375 3.046 1.445 0 2.392-1.196 2.392-3.046zm11.875 0c0 2.814-1.506 4.621-3.778 4.621a3.07 3.07 0 0 1-2.849-1.584h-.043v4.484h-1.858V21.442h1.799v1.506h.034a3.21 3.21 0 0 1 2.883-1.6c2.298 0 3.813 1.816 3.813 4.622zm-1.91 0c0-1.833-.947-3.038-2.393-3.038-1.42 0-2.375 1.23-2.375 3.038 0 1.824.955 3.046 2.375 3.046 1.445 0 2.393-1.196 2.393-3.046h0zm8.496 1.066c.138 1.232 1.334 2.04 2.969 2.04 1.566 0 2.693-.809 2.693-1.919 0-.964-.68-1.541-2.289-1.936l-1.609-.388c-2.28-.551-3.339-1.617-3.339-3.348 0-2.143 1.867-3.614 4.519-3.614 2.624 0 4.423 1.472 4.483 3.614h-1.876c-.112-1.239-1.137-1.987-2.634-1.987s-2.521.757-2.521 1.858c0 .878.654 1.395 2.255 1.79l1.368.336c2.548.603 3.606 1.626 3.606 3.442 0 2.323-1.851 3.778-4.794 3.778-2.754 0-4.613-1.421-4.733-3.667h1.902zM83.346 19.3v2.143h1.722v1.472h-1.722v4.991c0 .775.345 1.137 1.102 1.137.204-.004.409-.018.611-.043v1.463a5.1 5.1 0 0 1-1.032.086c-1.833 0-2.548-.688-2.548-2.444v-5.189h-1.316v-1.472h1.316V19.3h1.867zm2.719 6.67c0-2.849 1.678-4.639 4.294-4.639 2.625 0 4.295 1.79 4.295 4.639 0 2.857-1.661 4.639-4.295 4.639s-4.294-1.782-4.294-4.639zm6.695 0c0-1.954-.895-3.107-2.401-3.107s-2.4 1.162-2.4 3.107c0 1.962.895 3.107 2.4 3.107s2.401-1.145 2.401-3.107h0zm3.426-4.528h1.772v1.541h.043a2.16 2.16 0 0 1 2.178-1.636c.214-.001.428.023.637.069v1.738a2.59 2.59 0 0 0-.835-.112 1.87 1.87 0 0 0-.789.14 1.88 1.88 0 0 0-.658.456c-.184.197-.323.433-.407.69a1.89 1.89 0 0 0-.082.797v5.37h-1.858v-9.054zm13.198 6.395c-.25 1.644-1.85 2.771-3.898 2.771-2.634 0-4.269-1.765-4.269-4.596 0-2.84 1.644-4.682 4.191-4.682 2.505 0 4.08 1.721 4.08 4.466v.637h-6.395v.112c-.029.333.012.669.123.985a2.36 2.36 0 0 0 .516.847 2.38 2.38 0 0 0 .82.56c.31.127.643.185.977.173.439.041.88-.06 1.256-.29a2.05 2.05 0 0 0 .835-.983h1.764zm-6.282-2.702h4.526a2.17 2.17 0 0 0-.608-1.635 2.17 2.17 0 0 0-.737-.5c-.277-.114-.575-.17-.875-.163-.303-.002-.603.056-.883.171a2.29 2.29 0 0 0-.749.497 2.31 2.31 0 0 0-.5.747 2.28 2.28 0 0 0-.174.882h0zM37.826 8.731a2.64 2.64 0 0 1 2.807 2.965c0 1.906-1.03 3.002-2.808 3.002H35.67V8.731h2.155zm-1.229 5.123h1.125c.279.017.557-.029.816-.134a1.89 1.89 0 0 0 .679-.471c.189-.205.329-.45.411-.717s.103-.548.063-.824a1.88 1.88 0 0 0-.481-1.531 1.88 1.88 0 0 0-1.487-.603h-1.125v4.28zm5.084-1.41a2.15 2.15 0 0 1 .099-.876 2.12 2.12 0 0 1 .446-.761 2.13 2.13 0 0 1 .715-.516 2.14 2.14 0 0 1 1.726 0 2.13 2.13 0 0 1 .716.516 2.12 2.12 0 0 1 .445.761 2.13 2.13 0 0 1 .099.877c.029.296-.005.595-.098.878s-.245.542-.445.763a2.12 2.12 0 0 1-.716.517c-.272.12-.567.183-.864.183s-.592-.062-.864-.183-.516-.297-.716-.517a2.12 2.12 0 0 1-.445-.763c-.093-.283-.127-.582-.098-.878h0zm3.333 0c0-.976-.438-1.547-1.208-1.547s-1.207.571-1.207 1.547c0 .984.435 1.55 1.207 1.55s1.208-.57 1.208-1.55h0zm6.559 2.254h-.922l-.931-3.317h-.07l-.927 3.317h-.913l-1.241-4.503h.901l.807 3.436h.067l.926-3.436h.853l.926 3.436h.07l.803-3.436h.889l-1.236 4.503zm2.281-4.503h.856v.715h.066a1.35 1.35 0 0 1 1.344-.802 1.46 1.46 0 0 1 .644.097 1.45 1.45 0 0 1 .538.366 1.47 1.47 0 0 1 .376 1.212v2.915h-.889v-2.692c0-.724-.314-1.084-.972-1.084a1.03 1.03 0 0 0-.435.074 1.05 1.05 0 0 0-.365.249c-.103.108-.18.238-.227.379s-.064.291-.048.439v2.634h-.889v-4.503zm5.24-1.758h.889v6.261h-.889V8.437zm2.124 4.007c-.028-.296.006-.594.099-.877a2.11 2.11 0 0 1 .446-.761 2.13 2.13 0 0 1 .716-.516 2.14 2.14 0 0 1 1.726 0 2.13 2.13 0 0 1 .716.516c.2.22.352.479.446.761a2.12 2.12 0 0 1 .099.877c.029.296-.005.595-.098.878s-.245.542-.445.763a2.12 2.12 0 0 1-.716.517 2.14 2.14 0 0 1-.864.183c-.298 0-.592-.062-.864-.183s-.516-.297-.716-.517a2.12 2.12 0 0 1-.445-.763c-.093-.283-.127-.582-.098-.878h0zm3.333 0c0-.976-.438-1.547-1.208-1.547s-1.207.571-1.207 1.547c0 .984.435 1.55 1.207 1.55s1.208-.57 1.208-1.55h0zm1.85.98c0-.811.604-1.278 1.675-1.344l1.22-.07v-.389c0-.476-.314-.744-.922-.744-.496 0-.84.182-.938.5h-.86c.091-.773.818-1.269 1.84-1.269 1.129 0 1.766.562 1.766 1.513v3.077h-.855v-.633h-.07c-.143.227-.343.412-.581.536s-.504.183-.772.171a1.36 1.36 0 0 1-1.501-1.348h0zm2.895-.385v-.376l-1.1.07c-.62.042-.901.252-.901.649 0 .405.352.641.835.641a1.07 1.07 0 0 0 .421-.042 1.06 1.06 0 0 0 .745-.943h0zm2.052-.595c0-1.423.731-2.324 1.869-2.324a1.48 1.48 0 0 1 .805.194c.244.14.444.347.576.596h.066V8.437h.889v6.261h-.852v-.711h-.07c-.142.248-.348.451-.597.59s-.532.206-.817.196c-1.145 0-1.869-.901-1.869-2.328zm.918 0c0 .955.45 1.53 1.203 1.53s1.212-.583 1.212-1.526-.468-1.53-1.212-1.53-1.203.579-1.203 1.526h0zm6.964 0a2.13 2.13 0 0 1 .099-.876c.094-.282.246-.541.446-.761a2.13 2.13 0 0 1 .715-.516 2.14 2.14 0 0 1 1.726 0 2.13 2.13 0 0 1 .716.516 2.12 2.12 0 0 1 .445.761 2.13 2.13 0 0 1 .099.877c.029.296-.005.595-.098.878s-.245.542-.445.763a2.12 2.12 0 0 1-.716.517c-.272.12-.567.183-.864.183s-.592-.062-.864-.183-.516-.297-.716-.517a2.12 2.12 0 0 1-.445-.763c-.093-.283-.127-.582-.098-.878h0zm3.333 0c0-.976-.439-1.547-1.208-1.547s-1.207.571-1.207 1.547c0 .984.434 1.55 1.207 1.55s1.208-.57 1.208-1.55zm2.106-2.249h.856v.715h.066a1.35 1.35 0 0 1 1.344-.802 1.46 1.46 0 0 1 1.182.463c.15.161.261.353.326.563a1.47 1.47 0 0 1 .05.649v2.915h-.889v-2.692c0-.724-.315-1.084-.972-1.084a1.03 1.03 0 0 0-.8.323c-.102.108-.18.238-.227.379s-.064.291-.048.439v2.634h-.889v-4.503zm8.846-1.121v1.142h.976v.749h-.976v2.315c0 .472.194.678.637.678a2.95 2.95 0 0 0 .339-.021v.74a2.8 2.8 0 0 1-.483.045c-.988 0-1.382-.348-1.382-1.216v-2.543h-.715v-.749h.715v-1.14h.89zm2.19-.637h.881v2.481h.07a1.38 1.38 0 0 1 .559-.62 1.39 1.39 0 0 1 .814-.186 1.48 1.48 0 0 1 .638.107 1.49 1.49 0 0 1 .532.368 1.48 1.48 0 0 1 .381 1.204v2.907h-.889V12.01c0-.719-.335-1.084-.963-1.084a1.05 1.05 0 0 0-1.133 1.141v2.63h-.889v-6.26zm9.056 5.045c-.121.412-.382.768-.739 1.006a1.83 1.83 0 0 1-1.212.297c-.297.008-.591-.049-.864-.167a2.05 2.05 0 0 1-1.146-1.281c-.087-.284-.111-.583-.07-.877-.04-.295-.015-.595.071-.879s.233-.547.43-.771a2.07 2.07 0 0 1 .711-.522 2.08 2.08 0 0 1 .864-.18c1.253 0 2.009.856 2.009 2.27v.31h-3.18v.05a1.19 1.19 0 0 0 .315.91 1.16 1.16 0 0 0 .402.283 1.19 1.19 0 0 0 .482.096 1.08 1.08 0 0 0 1.072-.546h.855zm-3.126-1.451h2.275a1.09 1.09 0 0 0-.667-1.084c-.14-.058-.29-.086-.442-.083a1.15 1.15 0 0 0-.829.337 1.16 1.16 0 0 0-.252.381 1.15 1.15 0 0 0-.085.449h0z"/></g></g><defs><clipPath id="A"><path fill="#fff" d="M0 0h119.664v40H0z"/></clipPath></defs></svg>